<?xml version="1.0" encoding="UTF-8" standalone="no"?>
<!DOCTYPE svg PUBLIC "-//W3C//DTD SVG 1.0//EN" "http://www.w3.org/TR/2001/REC-SVG-20010904/DTD/svg10.dtd">
<!-- Created with Inkscape (http://www.inkscape.org/) -->
<svg
   xmlns:svg="http://www.w3.org/2000/svg"
   xmlns="http://www.w3.org/2000/svg"
   version="1.0"
   width="192.756"
   height="192.756"
   viewBox="0 0 192.756 192.756"
   id="svg2"
   xml:space="preserve"
   style="overflow:visible"><defs
   id="defs46">
			</defs>
		<path
   d="M 93.529,67.368 C 93.529,67.368 93.529,67.279 93.44,67.279 C 93.44,67.19 93.44,67.19 93.35,67.101 C 93.171,67.011 92.903,67.011 92.634,67.101 C 92.634,67.101 92.634,67.19 92.634,67.279 C 92.366,67.368 92.097,67.458 91.829,67.279 C 91.74,67.279 91.56,67.19 91.472,67.19 C 91.382,66.921 90.935,67.011 90.667,67.101 C 90.667,67.101 90.577,67.101 90.577,67.19 C 90.488,67.19 90.308,67.19 90.219,67.19 C 90.04,67.101 89.861,67.011 89.682,67.011 C 89.413,66.921 89.056,67.637 88.698,67.816 C 88.608,67.816 88.429,67.011 88.34,67.011 C 88.251,66.921 88.161,66.921 88.071,66.921 C 87.981,66.921 87.803,66.921 87.714,66.921 C 87.177,66.832 86.64,66.832 86.103,66.832 C 85.745,66.743 85.387,66.743 85.119,66.832 C 85.03,66.832 84.94,66.743 84.94,66.832 L 84.94,66.832 C 84.851,66.832 84.761,66.832 84.671,66.832 C 84.582,66.832 84.492,66.743 84.403,66.743 C 84.313,66.743 84.313,66.743 84.313,66.743 C 84.224,66.743 84.224,66.743 84.224,66.743 C 83.955,66.654 83.776,66.654 83.508,66.654 C 83.061,66.565 82.524,66.565 82.076,66.565 C 82.076,66.565 81.987,66.565 81.987,66.654 C 81.808,66.654 81.629,66.654 81.36,66.565 C 81.181,66.565 81.092,66.565 80.913,66.476 C 80.913,66.476 80.824,66.386 80.734,66.386 C 80.734,66.386 80.645,66.386 80.555,66.386 C 79.66,66.207 78.855,66.117 77.96,66.028 C 77.87,66.028 77.781,66.028 77.603,66.028 C 77.155,65.939 76.707,65.939 76.26,65.939 C 76.171,65.939 76.171,65.939 76.081,66.028 C 75.902,65.939 75.812,66.386 75.723,66.386 C 75.634,66.297 75.544,65.76 75.454,65.849 C 75.454,65.849 75.454,65.849 75.365,65.849 C 75.275,65.849 75.096,65.76 74.917,65.76 C 74.917,65.76 74.828,65.76 74.828,65.67 C 74.739,65.581 74.56,65.67 74.47,65.67 C 74.381,65.67 74.291,65.67 74.202,65.67 C 74.113,65.67 74.023,65.581 73.933,65.491 C 73.843,65.491 73.843,65.581 73.754,65.581 C 73.754,65.581 73.754,65.581 73.754,65.67 C 73.665,65.67 73.665,65.67 73.665,65.67 C 73.396,65.67 73.217,65.312 72.948,65.312 C 72.323,65.133 71.696,65.043 71.07,64.954 C 70.713,64.865 70.354,64.775 69.907,64.775 C 69.818,64.775 69.818,64.864 69.728,64.954 C 69.728,64.954 69.728,64.954 69.639,64.954 C 69.37,64.954 69.013,64.865 68.744,64.686 C 68.655,64.686 68.655,64.686 68.655,64.686 C 68.655,64.686 68.655,64.686 68.566,64.686 L 68.566,64.686 C 68.297,64.417 68.029,64.239 67.85,64.149 C 67.671,64.06 67.493,63.97 67.224,63.97 C 67.135,63.97 66.955,63.881 66.777,63.881 C 66.777,63.881 66.777,63.881 66.688,63.881 C 66.598,63.792 66.419,63.703 66.33,63.613 C 66.151,63.613 66.061,63.523 65.883,63.523 C 65.794,63.523 65.704,63.434 65.614,63.434 C 65.524,63.434 65.435,63.434 65.346,63.434 L 65.346,63.434 C 65.167,63.255 64.988,63.076 64.809,62.897 C 64.54,62.808 64.451,62.718 64.272,62.628 C 64.093,62.628 64.004,64.239 63.914,64.239 C 63.825,64.239 63.735,62.539 63.735,62.539 C 63.556,62.449 63.556,62.539 63.466,62.539 C 63.376,62.539 63.377,62.539 63.377,62.539 C 63.019,62.268 62.75,62 62.84,61.552 C 62.303,61.105 62.482,60.747 62.661,60.389 C 62.75,60.209 63.198,59.941 63.377,59.763 C 63.646,59.405 64.003,59.226 64.361,59.047 C 64.54,58.868 64.898,58.778 65.166,58.689 C 65.703,58.51 66.061,58.241 66.597,58.063 C 67.134,57.884 67.671,57.884 68.118,57.616 C 68.297,57.527 68.566,57.437 68.744,57.347 C 69.37,57.079 69.996,57.168 70.623,57.079 C 71.16,56.9 71.697,56.81 72.234,56.721 C 72.323,56.721 72.502,56.542 72.502,56.453 C 72.591,56.364 72.771,56.184 72.591,56.184 C 72.681,56.095 72.412,56.005 72.412,56.005 C 72.412,55.916 72.234,55.826 72.144,55.916 C 71.786,56.005 71.428,55.916 71.16,56.005 C 71.07,56.094 70.981,56.273 70.891,56.184 C 70.533,56.095 70.265,56.184 69.907,56.363 C 69.728,56.363 69.46,56.273 69.191,56.542 C 69.191,56.542 69.102,56.453 69.012,56.453 C 68.296,56.364 67.58,56.632 66.865,56.811 C 66.776,56.811 66.686,57.169 66.596,57.08 C 66.239,56.811 65.97,56.901 65.791,57.259 C 65.701,57.259 65.701,57.259 65.701,57.259 L 65.612,57.259 C 65.523,57.259 65.433,57.169 65.433,57.169 C 64.807,57.08 64.181,57.259 63.733,57.527 C 63.554,57.616 63.733,57.885 63.644,57.974 C 63.465,57.974 63.375,57.974 63.196,57.974 C 63.107,57.885 63.017,57.885 62.928,57.885 C 62.57,57.706 62.212,58.064 61.854,58.422 C 61.854,58.422 61.854,58.422 61.765,58.422 C 61.676,58.243 61.407,58.243 61.228,58.333 C 60.333,58.78 59.439,59.317 58.813,60.122 C 58.633,60.391 58.544,60.569 58.455,60.928 C 58.276,61.107 58.634,61.465 58.455,61.643 C 58.455,61.733 58.366,61.822 58.276,61.822 C 58.276,62.18 58.455,62.448 58.544,62.717 C 58.633,62.986 58.813,63.165 58.992,63.433 C 59.081,63.702 59.349,63.88 59.618,63.97 C 59.797,64.06 59.887,64.149 60.155,64.239 C 60.155,64.328 60.155,64.418 60.244,64.507 C 60.423,64.865 60.87,65.044 61.228,65.312 C 61.497,65.491 61.676,65.581 61.854,65.76 C 62.033,65.849 62.212,65.849 62.301,65.939 C 62.391,66.028 62.48,66.118 62.57,66.118 C 62.659,66.207 62.749,66.207 62.749,66.118 C 62.928,66.207 63.107,66.297 63.286,66.387 L 63.286,66.387 C 63.465,66.566 63.733,66.745 64.002,66.834 C 64.002,66.923 64.091,66.923 64.091,67.013 C 64.36,67.103 64.538,67.013 64.807,67.103 L 64.896,67.103 C 64.985,67.192 65.165,67.281 65.254,67.281 C 65.344,67.37 65.523,67.46 65.701,67.55 C 65.791,67.639 65.97,67.729 66.149,67.818 C 66.149,67.818 66.238,67.818 66.328,67.908 C 66.596,67.997 67.043,67.908 67.312,68.087 L 67.312,68.087 C 67.401,68.176 67.491,68.355 67.58,68.355 C 67.759,68.444 67.938,68.534 68.027,68.534 C 68.743,69.071 69.638,69.16 70.443,69.429 C 70.891,69.608 71.427,69.518 71.875,69.608 C 71.875,69.697 71.875,69.697 71.875,69.697 C 72.054,69.697 72.233,69.786 72.412,69.876 C 72.681,69.965 72.949,70.145 73.218,70.234 C 74.291,70.503 75.276,70.681 76.26,70.95 C 76.976,71.129 77.603,71.129 78.318,71.308 C 78.765,71.397 79.124,71.577 79.66,71.577 C 79.839,71.488 80.107,71.308 80.286,71.398 C 80.375,71.488 80.465,71.488 80.555,71.577 C 80.644,71.577 80.644,71.577 80.644,71.666 C 80.733,71.666 80.733,71.666 80.823,71.666 C 81.807,72.024 82.97,72.203 84.044,72.203 C 84.223,72.114 84.402,72.114 84.581,72.024 C 84.85,71.845 84.939,71.308 85.297,71.219 L 85.386,71.488 C 85.475,71.577 85.475,71.577 85.475,71.667 C 85.475,71.757 85.475,71.846 85.565,71.846 C 85.654,71.935 85.744,72.115 85.834,72.204 L 85.923,72.204 L 86.012,72.293 C 86.37,72.383 86.728,72.472 87.086,72.472 C 87.444,72.383 87.712,72.293 87.981,72.383 C 88.16,72.383 88.339,72.383 88.518,72.383 C 88.518,72.472 88.607,72.472 88.607,72.472 C 88.786,72.472 88.965,72.472 89.144,72.651 C 89.234,72.83 89.323,72.919 89.413,73.098 C 89.413,73.277 89.413,73.456 89.413,73.545 C 89.413,73.634 89.502,73.724 89.502,73.814 C 89.502,73.903 89.502,73.903 89.502,73.993 C 89.502,74.172 89.413,74.262 89.413,74.351 C 89.502,74.44 89.502,74.44 89.592,74.44 C 89.592,74.619 89.592,74.798 89.682,75.066 C 89.592,75.335 89.592,75.603 89.503,75.871 L 89.503,75.871 C 89.503,76.05 89.414,76.229 89.414,76.408 C 89.414,76.945 89.414,77.392 89.414,77.929 L 89.503,78.018 L 89.503,78.107 C 89.503,78.196 89.592,78.286 89.592,78.286 C 89.682,78.376 89.682,78.465 89.771,78.555 C 89.771,78.555 89.771,78.644 89.861,78.644 C 89.861,78.734 89.95,78.823 89.95,78.913 C 90.039,79.002 89.95,79.092 89.95,79.092 C 89.861,79.181 89.771,79.271 89.771,79.361 C 89.771,79.361 89.771,79.361 89.682,79.361 C 89.592,79.361 89.592,79.45 89.503,79.629 C 89.503,79.718 89.503,79.808 89.503,79.808 C 89.414,80.165 89.503,80.433 89.503,80.792 C 89.592,81.418 89.592,82.044 89.682,82.671 C 89.682,82.85 89.682,83.029 89.682,83.118 C 89.771,83.208 89.771,83.208 89.771,83.208 C 89.771,83.655 89.861,84.192 89.861,84.639 C 89.861,84.908 89.771,85.086 89.861,85.355 L 89.95,85.445 C 89.95,85.624 90.039,85.802 90.039,85.982 C 89.95,86.071 89.95,86.071 89.95,86.161 C 89.95,86.251 89.95,86.34 89.95,86.43 C 90.039,86.43 90.039,86.519 90.129,86.519 C 90.129,86.698 90.755,86.788 90.845,86.877 C 90.845,87.056 90.219,87.324 90.219,87.503 L 90.13,87.503 C 90.309,87.771 90.04,87.95 90.13,88.129 C 90.13,88.129 90.13,88.129 90.13,88.219 C 90.13,88.219 90.13,88.308 90.13,88.398 C 90.13,88.666 90.13,88.935 90.219,89.203 C 90.219,89.382 90.219,89.561 90.219,89.74 C 90.219,90.277 90.308,90.814 90.308,91.35 C 90.398,91.529 90.398,91.619 90.398,91.797 C 90.487,92.871 90.577,94.034 90.755,95.197 C 90.755,95.734 90.845,96.181 90.845,96.629 L 90.845,96.629 C 90.935,97.434 91.024,98.328 91.203,99.135 C 91.203,99.492 91.203,99.94 91.292,100.297 C 91.203,100.387 91.203,100.477 91.203,100.567 C 91.292,100.655 91.292,100.835 91.292,100.924 C 91.381,101.371 91.381,101.819 91.471,102.266 C 91.471,102.803 91.471,103.25 91.65,103.698 C 91.65,103.788 91.65,103.878 91.65,103.878 C 91.65,104.056 91.65,104.146 91.65,104.235 C 91.739,104.235 91.739,104.235 91.739,104.325 L 91.65,104.413 C 91.65,104.683 91.65,105.397 91.829,105.667 C 91.829,105.755 91.919,105.22 92.008,105.13 C 92.008,104.95 92.098,104.683 92.098,104.503 C 92.187,104.413 92.187,104.325 92.187,104.235 C 92.276,103.698 92.366,103.071 92.456,102.536 C 92.545,101.909 92.367,101.372 92.545,100.745 C 92.634,99.493 92.724,98.419 92.814,97.257 C 92.545,96.809 92.456,96.272 92.635,95.824 L 92.635,95.824 C 92.724,95.735 92.724,95.645 92.724,95.556 C 92.814,95.467 92.903,95.288 92.903,95.198 C 92.992,92.245 93.261,89.383 93.35,86.43 C 93.44,85.356 93.44,84.372 93.35,83.298 C 93.35,83.298 93.261,83.298 93.261,83.209 C 93.261,83.119 93.171,83.119 93.171,83.03 C 93.082,82.672 93.082,82.314 93.171,82.046 C 93.261,81.867 93.44,81.599 93.44,81.42 C 93.529,81.062 93.529,80.794 93.529,80.435 C 93.44,80.078 93.081,79.63 93.171,79.183 C 93.261,78.914 93.44,78.646 93.44,78.378 C 93.529,77.841 93.619,77.304 93.529,76.768 C 93.529,76.499 93.44,76.231 93.44,75.963 C 93.529,75.605 93.619,75.337 93.619,74.979 C 93.53,74.531 93.798,74.084 93.619,73.726 C 93.44,73.279 93.35,72.831 93.619,72.384 C 93.618,70.768 94.065,69.068 93.529,67.368 L 93.529,67.368 z"
   id="path11"
   style="fill:#181516;fill-rule:evenodd" /><path
   d="M 100.597,67.278 C 100.687,66.383 100.777,65.488 100.777,64.594 C 100.777,64.057 100.597,63.52 100.597,62.984 C 100.687,62.358 100.687,61.732 100.597,61.105 L 100.597,61.016 L 100.597,60.927 C 100.597,60.837 100.507,60.658 100.507,60.48 C 100.418,60.301 100.418,60.032 100.507,59.764 C 100.507,59.585 100.597,59.227 100.597,58.958 C 100.597,58.779 100.597,58.601 100.507,58.421 C 100.507,58.332 100.507,58.242 100.507,58.152 C 100.507,58.062 100.418,58.063 100.418,57.973 C 100.418,57.973 100.418,57.973 100.418,57.884 C 100.418,57.258 100.597,56.72 100.507,56.094 C 100.418,53.947 100.329,51.889 100.239,49.831 C 100.149,49.204 99.881,48.667 99.97,48.041 C 100.059,47.683 99.97,47.415 99.97,47.146 C 99.97,46.609 99.88,46.162 99.791,45.714 C 99.701,44.193 99.88,42.851 99.611,41.33 C 99.522,41.151 99.522,40.972 99.432,40.793 C 99.432,40.435 99.343,40.167 99.253,39.898 C 99.253,39.541 99.432,39.183 99.343,38.825 C 99.343,38.736 98.895,38.646 98.895,38.557 C 98.895,38.378 99.253,38.288 99.253,38.199 C 99.163,37.483 99.253,36.678 99.074,35.873 C 99.074,35.783 99.074,35.783 99.074,35.694 C 98.984,35.426 98.984,35.157 98.894,34.889 C 98.806,34.799 98.716,33.815 98.537,33.815 C 98.358,33.726 98.268,34.799 98.268,34.889 C 98.268,35.157 98.178,35.426 98.178,35.694 C 97.91,36.857 97.999,38.02 97.91,39.184 C 97.91,39.363 97.91,39.452 97.82,39.631 C 97.82,39.809 97.82,40.078 97.731,40.257 C 97.641,40.615 97.641,41.062 97.552,41.42 C 97.463,42.404 97.641,43.299 97.463,44.283 C 97.463,44.372 97.463,44.372 97.463,44.372 C 97.463,44.551 97.374,44.641 97.374,44.73 C 97.374,44.999 97.374,45.177 97.463,45.446 C 97.463,45.714 97.463,45.893 97.463,46.072 C 97.374,46.161 97.374,46.161 97.284,46.251 C 97.284,46.34 97.284,46.43 97.284,46.609 C 97.284,46.609 97.284,46.698 97.284,46.788 C 97.105,47.682 97.373,48.488 97.284,49.293 C 97.284,49.472 97.194,49.651 97.194,49.83 C 97.105,49.83 97.105,49.919 97.105,49.919 C 97.105,50.008 97.463,50.724 97.552,50.814 L 97.105,50.814 C 97.105,50.903 96.926,50.814 96.926,50.814 C 96.926,51.082 97.105,50.993 97.015,51.172 C 96.926,51.619 96.747,52.067 96.926,52.604 C 97.015,52.962 96.926,53.319 96.926,53.678 L 96.926,53.678 C 96.926,53.767 96.926,53.857 96.926,53.946 C 96.747,55.199 96.478,56.451 96.657,57.704 C 96.746,58.062 96.746,58.42 96.657,58.688 C 96.657,58.777 96.657,58.867 96.657,58.956 C 96.567,59.046 96.567,59.135 96.657,59.225 C 96.657,59.672 96.657,60.03 96.567,60.389 C 96.478,60.746 96.389,61.104 96.478,61.463 C 96.567,62.268 96.657,63.073 96.567,63.967 C 96.567,64.236 96.478,64.593 96.389,64.862 C 96.299,67.725 96.299,70.588 96.389,73.451 C 96.567,75.24 96.389,77.119 96.567,78.909 C 96.746,80.967 96.567,83.025 96.657,85.082 C 96.836,87.766 96.926,90.451 97.104,93.045 C 97.104,93.582 97.373,94.029 97.283,94.477 C 97.193,94.924 97.104,95.461 97.283,95.909 C 97.283,95.998 97.551,95.998 97.551,96.088 C 97.551,96.088 97.82,96.088 97.909,96.177 L 97.372,96.535 C 97.461,96.982 97.461,97.429 97.461,97.788 C 97.461,97.876 97.55,98.056 97.55,98.145 C 97.55,98.323 97.55,98.502 97.639,98.592 C 97.729,99.487 97.55,100.291 97.729,101.186 C 97.729,101.276 97.729,101.366 97.729,101.366 C 97.818,101.813 97.818,102.261 97.818,102.708 C 97.729,103.065 97.729,103.513 97.818,103.96 C 97.818,104.407 97.908,104.855 98.087,105.214 C 98.087,105.392 98.087,105.482 98.087,105.661 C 98.176,105.661 98.176,105.661 98.176,105.661 C 98.266,106.196 97.997,106.645 98.087,107.181 C 98.087,107.271 98.087,107.451 98.176,107.54 C 98.176,107.808 98.266,108.972 98.534,109.06 C 98.714,109.15 98.981,108.078 98.891,107.808 C 98.891,107.808 98.891,107.718 98.891,107.63 C 99.071,107.181 99.16,106.823 98.981,106.376 C 98.981,106.286 98.981,106.108 98.891,106.019 C 98.981,106.019 98.981,106.019 98.981,105.929 C 98.891,105.929 98.891,105.929 98.891,105.929 C 98.891,105.839 98.891,105.661 98.981,105.572 L 98.981,105.482 C 98.981,105.392 98.981,105.392 99.071,105.392 C 99.16,105.214 99.16,104.945 99.25,104.767 C 99.25,104.677 99.25,104.677 99.25,104.677 C 99.429,104.14 99.16,103.603 99.34,103.066 C 99.519,102.082 99.519,101.277 99.608,100.293 C 99.608,100.115 99.519,99.936 99.519,99.756 L 99.519,99.756 C 99.608,99.578 99.608,99.488 99.608,99.399 C 99.877,98.504 99.966,97.7 99.788,96.894 C 99.788,96.537 99.608,96.268 99.698,95.999 C 99.698,95.641 99.877,95.373 99.877,94.925 C 100.056,94.12 99.877,93.315 99.967,92.42 C 99.967,92.152 100.146,91.794 100.146,91.525 C 100.236,89.736 100.503,88.125 100.415,86.336 C 100.415,86.067 100.326,85.71 100.415,85.441 C 100.415,85.172 100.415,84.815 100.504,84.546 C 100.594,84.277 100.594,84.009 100.594,83.741 C 100.504,83.473 100.415,83.204 100.415,82.936 C 100.594,82.31 99.699,81.862 99.609,81.236 C 99.609,81.147 100.593,81.057 100.593,80.968 C 100.593,80.968 100.593,80.968 100.503,80.968 C 100.503,80.878 100.503,80.789 100.503,80.699 C 100.503,80.52 100.414,80.252 100.503,80.073 C 100.773,78.731 100.683,77.568 100.593,76.315 C 100.593,76.226 100.593,76.226 100.593,76.226 C 100.593,76.137 100.593,76.137 100.593,76.047 C 100.593,75.331 100.503,74.526 100.593,73.72 C 100.683,73.363 100.683,72.915 100.683,72.557 C 100.683,71.751 100.683,70.857 100.593,70.052 C 100.683,69.962 100.683,69.873 100.593,69.873 C 100.593,69.694 100.236,69.515 100.236,69.336 C 100.236,69.247 100.773,69.067 100.683,68.978 C 100.593,68.978 100.593,68.888 100.593,68.888 C 100.597,68.352 100.597,67.815 100.597,67.278 L 100.597,67.278 z"
   id="path13"
   style="fill:#181516;fill-rule:evenodd" /><path
   d="M 138.712,61.016 C 138.712,60.837 138.354,60.837 138.354,60.747 C 138.444,60.031 137.997,59.584 137.459,59.226 C 137.279,59.226 137.102,59.226 136.922,59.137 C 136.832,59.048 136.832,58.869 136.653,58.69 C 136.384,58.511 136.206,58.601 136.027,58.779 C 135.937,58.779 135.848,58.779 135.848,58.779 C 135.579,58.69 135.311,58.779 135.311,58.51 C 135.221,58.51 135.49,58.241 135.311,58.152 C 135.042,58.063 134.685,57.884 134.416,57.794 C 134.237,57.794 134.058,57.615 133.969,57.794 L 133.879,57.884 C 133.79,57.884 133.61,57.973 133.432,57.973 C 133.432,57.884 133.432,57.884 133.342,57.884 C 133.342,57.615 133.253,57.347 133.074,57.437 C 132.894,57.437 132.805,57.616 132.627,57.616 L 132.537,57.616 C 132.268,57.437 132.268,57.169 132,57.079 C 131.195,56.81 130.389,56.9 129.584,56.631 C 129.227,56.542 128.869,56.542 128.511,56.452 C 128.332,56.452 128.242,56.363 128.153,56.363 C 127.796,56.184 127.438,56.273 127.17,56.452 L 127.17,56.541 C 127.08,56.541 126.901,56.63 126.812,56.63 L 126.812,56.63 C 126.991,56.541 126.812,56.362 126.722,56.183 C 126.543,56.094 126.365,56.094 126.186,56.094 C 126.096,56.183 126.006,56.273 126.006,56.363 C 126.006,56.363 125.917,56.363 125.828,56.363 C 125.738,56.452 125.648,56.452 125.648,56.542 C 125.738,56.721 125.828,56.811 125.917,56.811 C 126.186,56.99 126.454,56.721 126.722,56.811 C 126.902,56.9 127.08,57.08 127.26,57.169 C 127.886,57.259 128.422,57.616 128.959,57.527 C 129.228,57.527 129.406,57.348 129.675,57.527 C 129.944,57.616 130.032,57.885 130.212,57.974 C 131.375,58.421 132.448,58.869 133.523,59.584 C 134.059,59.942 134.506,60.568 134.239,61.284 C 133.881,62.179 132.986,62.715 132.091,63.163 C 131.912,63.252 131.735,63.52 131.555,63.7 C 131.376,63.878 131.108,63.968 130.839,64.057 L 130.75,64.057 C 130.75,63.967 130.66,63.878 130.57,63.878 C 130.39,63.878 130.213,63.878 130.033,63.967 C 129.944,63.967 129.765,63.967 129.676,64.057 C 128.96,64.236 128.244,64.415 127.529,64.773 C 127.44,64.773 127.35,64.773 127.261,64.773 C 127.171,64.773 126.991,64.773 126.903,64.773 C 126.723,64.773 126.634,64.862 126.456,64.862 C 126.277,65.041 126.098,65.131 125.83,65.22 L 125.83,65.22 C 125.83,65.131 125.74,65.131 125.74,65.131 C 125.56,65.041 125.383,65.131 125.203,65.22 C 125.113,65.22 125.024,65.22 124.935,65.22 C 124.755,65.309 124.665,65.488 124.577,65.488 C 124.398,65.488 124.308,65.488 124.219,65.488 L 124.219,65.488 C 124.04,65.488 123.862,65.578 123.683,65.578 L 123.683,65.488 C 122.788,65.488 121.893,65.757 120.998,65.846 C 120.998,65.846 120.998,65.846 120.998,65.935 C 120.729,65.935 120.641,66.382 120.372,66.472 C 120.282,66.561 120.103,66.114 120.014,66.203 C 120.014,66.114 119.925,66.114 119.925,66.114 C 119.835,65.935 119.656,66.114 119.567,66.203 L 119.567,66.203 C 119.478,66.203 119.388,66.203 119.298,66.203 C 119.209,66.114 119.119,66.114 119.03,66.114 C 118.94,66.114 118.85,66.114 118.76,66.114 C 118.671,66.114 118.492,66.114 118.403,66.114 C 117.866,66.203 117.33,66.293 116.793,66.383 C 116.703,66.383 116.703,66.383 116.614,66.383 C 116.524,66.383 116.524,66.473 116.524,66.473 C 116.345,66.562 116.255,66.562 116.077,66.562 C 115.988,66.651 115.898,66.651 115.808,66.651 C 115.719,66.562 115.539,66.472 115.361,66.562 C 115.272,66.562 115.272,66.651 115.272,66.651 C 115.092,66.651 115.003,66.651 114.825,66.651 L 114.735,66.651 L 114.645,66.562 C 114.376,66.562 114.198,66.562 114.019,66.562 C 113.929,66.562 113.75,66.562 113.572,66.562 C 113.214,66.562 112.766,66.562 112.409,66.651 C 111.872,66.74 111.513,67.099 110.977,67.099 C 110.887,67.099 110.887,67.099 110.798,67.009 C 110.798,66.919 110.798,66.919 110.708,66.83 C 110.439,66.741 110.261,66.919 109.992,67.009 C 109.813,67.099 109.635,67.099 109.545,67.188 C 109.366,67.188 109.276,67.188 109.098,67.188 C 109.098,67.099 109.098,67.009 109.008,67.009 C 108.829,66.919 108.651,66.919 108.382,67.009 C 108.292,66.919 108.203,66.919 108.113,67.009 C 106.771,67.099 105.518,67.009 104.176,67.009 L 104.176,67.009 C 103.997,67.009 103.907,67.009 103.729,67.099 C 103.639,67.188 103.998,67.456 103.998,67.456 C 103.908,67.546 103.551,67.456 103.551,67.546 C 103.371,68.53 103.371,69.424 103.371,70.318 C 103.461,71.035 103.64,71.84 103.551,72.556 C 103.551,73.808 103.819,75.061 103.64,76.403 C 103.64,76.583 103.551,76.761 103.551,76.94 C 103.64,77.208 103.73,77.387 103.73,77.566 C 103.909,78.55 103.551,79.534 103.73,80.428 C 103.73,80.786 103.909,81.144 103.909,81.503 C 103.73,82.755 103.819,84.008 103.819,85.26 C 103.819,85.439 103.909,85.618 103.909,85.886 C 104.089,86.243 103.819,86.602 103.909,86.96 C 103.909,87.049 103.999,87.139 103.999,87.228 C 104.178,87.675 104.178,88.123 104.178,88.57 C 103.999,88.928 103.909,89.196 103.909,89.554 C 104.089,90.001 104.089,90.449 104.267,90.807 C 104.446,91.254 104.446,91.791 104.356,92.238 C 104.356,92.417 104.267,92.596 104.267,92.775 C 103.998,94.833 104.535,96.712 104.624,98.681 C 104.624,98.859 104.534,99.216 104.534,99.486 C 104.714,100.113 104.534,100.648 104.803,101.275 C 104.803,101.365 104.893,101.545 104.982,101.632 C 104.982,101.722 105.072,101.812 105.072,101.812 C 105.072,101.902 105.072,101.992 105.072,101.992 C 104.982,102.08 104.982,102.26 104.893,102.349 C 104.803,102.439 104.803,102.617 104.893,102.796 C 104.893,102.886 104.893,102.974 104.982,103.153 C 104.982,103.153 104.982,103.153 104.982,103.243 C 104.982,103.421 104.803,103.6 104.893,103.78 C 104.893,103.87 104.893,103.87 104.982,103.958 C 104.982,104.138 104.982,104.675 105.072,104.765 C 105.162,104.943 105.162,105.48 105.251,105.48 C 105.609,105.48 105.609,104.228 105.52,103.871 C 105.61,103.691 105.52,103.512 105.52,103.244 C 105.61,103.244 105.61,103.154 105.61,103.064 C 105.61,102.886 105.61,102.796 105.52,102.707 C 105.52,102.617 105.61,102.529 105.61,102.439 C 105.52,102.349 105.43,102.169 105.43,102.08 C 105.52,102.08 105.52,102.08 105.61,102.08 C 105.61,101.992 105.789,101.992 105.789,101.902 C 105.789,101.632 105.879,101.365 105.879,101.097 C 105.879,100.738 105.789,100.38 105.879,100.023 C 105.879,100.023 105.968,99.933 105.968,99.843 C 105.968,99.753 105.968,99.663 105.879,99.663 C 105.968,99.485 105.968,99.395 105.879,99.216 C 105.879,99.038 105.879,98.859 105.879,98.681 L 105.879,98.681 C 105.968,98.681 106.058,98.681 106.058,98.591 C 106.148,98.411 106.237,98.234 106.237,97.964 C 106.327,97.874 106.327,97.696 106.327,97.427 C 106.327,97.159 106.058,96.89 106.148,96.533 C 106.237,96.444 106.327,96.354 106.416,96.175 C 106.416,95.996 106.416,95.906 106.416,95.728 C 106.416,95.638 106.416,95.459 106.416,95.37 C 106.416,95.191 106.416,95.102 106.416,94.923 C 106.506,94.744 106.506,94.565 106.416,94.297 C 106.416,94.208 106.506,94.028 106.506,93.939 L 106.596,93.85 C 106.596,93.671 106.596,93.581 106.596,93.402 C 106.596,93.223 106.685,92.955 106.685,92.776 C 106.685,92.776 106.685,92.776 106.685,92.687 C 106.775,92.418 106.775,92.15 106.864,91.882 C 106.864,91.703 106.954,91.524 106.954,91.345 C 107.044,90.808 106.864,90.45 106.775,89.914 C 106.685,89.735 106.775,89.556 106.864,89.288 L 106.864,89.288 C 107.044,89.019 107.133,88.751 107.133,88.572 L 107.133,88.483 C 107.223,88.304 107.223,88.125 107.133,87.946 C 107.133,87.767 107.133,87.588 107.133,87.499 C 107.133,87.41 107.133,87.41 107.044,87.41 C 106.954,87.052 106.864,86.784 106.864,86.515 C 106.864,86.336 106.954,86.157 107.044,85.978 C 107.133,85.978 107.312,85.889 107.312,85.799 C 107.312,85.62 107.312,85.531 107.402,85.442 L 107.402,85.352 C 107.402,85.263 107.402,85.173 107.402,85.083 C 107.402,84.815 107.402,84.636 107.312,84.457 L 107.312,84.457 C 107.223,84.368 107.223,84.278 107.223,84.188 C 107.133,84.099 107.133,84.009 107.223,83.83 L 107.312,83.92 C 107.312,83.741 107.402,83.562 107.402,83.383 C 107.492,83.025 107.582,82.667 107.582,82.309 C 107.582,81.772 107.582,81.325 107.582,80.788 C 107.492,80.609 107.492,80.341 107.582,80.162 C 107.671,79.894 107.671,79.715 107.671,79.447 C 107.76,79.268 107.76,79.178 107.76,78.999 C 107.85,78.283 107.671,77.657 107.671,77.031 C 107.76,76.942 107.76,76.852 107.76,76.763 C 107.76,76.405 107.76,76.137 107.76,75.868 L 107.76,75.868 C 107.85,75.689 107.85,75.511 107.76,75.421 C 107.76,75.242 107.671,75.063 107.671,74.884 C 107.582,74.705 107.671,74.526 107.76,74.347 C 107.76,74.168 107.76,74.079 107.76,73.989 C 107.85,73.81 107.85,73.72 107.76,73.542 L 107.76,73.542 C 107.76,73.453 107.76,73.363 107.76,73.184 C 107.76,73.184 107.85,73.095 107.76,73.005 L 107.76,72.915 C 107.76,72.826 107.76,72.647 107.85,72.558 C 107.85,72.379 108.03,72.379 108.119,72.379 C 109.014,72.379 109.819,72.468 110.804,72.379 C 110.893,72.289 110.983,72.289 111.161,72.2 C 111.787,71.931 112.324,72.379 112.951,72.2 C 113.219,72.2 113.577,72.111 113.846,72.111 C 115.188,71.842 116.351,71.842 117.693,71.485 C 117.783,71.485 117.783,71.485 117.872,71.395 L 117.872,71.395 C 117.872,71.395 117.872,71.395 117.962,71.395 L 118.052,71.306 C 118.231,71.217 118.409,71.127 118.499,71.038 C 118.499,70.948 118.409,70.859 118.499,70.859 C 118.499,70.769 118.499,70.769 118.588,70.68 C 118.588,70.591 118.588,70.591 118.678,70.501 C 118.678,70.412 118.409,70.232 118.409,70.054 C 118.499,70.054 118.588,69.607 118.588,69.428 C 118.588,69.517 118.946,69.786 118.946,69.965 C 118.856,70.144 118.856,70.413 118.946,70.591 C 119.036,70.949 119.393,71.128 119.483,71.128 C 120.288,71.307 120.915,70.859 121.629,70.68 C 121.809,70.68 121.898,70.591 122.076,70.591 C 122.345,70.412 122.613,70.412 122.882,70.322 C 122.972,70.322 123.061,70.233 123.061,70.233 C 123.151,70.233 123.151,70.233 123.151,70.233 C 123.24,70.233 123.24,70.233 123.33,70.144 C 123.599,70.055 123.867,70.055 124.225,69.965 C 124.225,69.965 124.225,69.965 124.315,69.965 L 124.315,69.965 C 124.762,69.876 125.21,69.876 125.657,69.786 C 125.837,69.697 126.014,69.607 126.104,69.517 C 126.194,69.517 126.284,69.517 126.373,69.517 C 126.463,69.517 126.552,69.338 126.552,69.249 C 126.552,69.249 126.552,69.249 126.552,69.16 C 126.642,69.16 126.642,69.16 126.731,69.16 C 127,68.981 127.269,69.249 127.627,69.16 C 127.806,69.16 128.074,68.981 128.253,68.891 C 128.522,68.802 128.7,68.623 128.88,68.444 C 129.059,68.355 129.148,68.355 129.237,68.265 C 129.684,68.176 130.042,68.176 130.399,68.086 C 130.579,68.086 130.669,67.996 130.758,67.907 C 130.937,67.907 131.026,67.817 131.205,67.728 C 131.294,67.728 131.384,67.639 131.384,67.549 C 131.473,67.459 131.653,67.638 131.742,67.549 C 131.831,67.549 131.92,67.459 132.01,67.369 C 132.279,67.369 132.457,67.19 132.726,66.922 C 132.816,66.922 132.905,66.833 132.995,66.833 C 133.085,66.833 133.085,66.833 133.174,66.833 C 133.174,66.744 133.174,66.744 133.174,66.744 C 133.532,66.655 133.801,66.565 134.158,66.476 C 134.158,66.386 134.248,66.386 134.248,66.386 C 134.516,66.297 134.784,66.117 134.964,65.849 C 134.964,65.76 135.053,65.67 135.053,65.58 C 135.053,65.58 135.053,65.58 135.143,65.58 C 135.322,65.58 135.59,65.49 135.769,65.401 C 135.859,65.401 135.859,65.401 135.859,65.401 C 136.485,65.133 137.022,64.686 137.469,64.149 C 137.559,64.06 137.559,63.97 137.559,63.88 C 137.559,63.791 137.559,63.791 137.559,63.791 C 137.648,63.702 137.559,63.165 137.648,63.075 C 137.648,62.896 138.095,63.254 138.364,63.165 C 138.722,63.165 138.364,62.717 138.454,62.539 C 138.454,62.36 138.633,62.36 138.811,62.36 C 138.901,62.27 138.901,62.181 138.901,62.181 C 138.979,61.732 138.891,61.374 138.712,61.016 L 138.712,61.016 z M 129.943,56.99 L 130.032,56.99 L 129.943,56.99 L 129.943,56.99 z"
   id="path15"
   style="fill:#181516;fill-rule:evenodd" /><path
   d="M 121.712,55.826 C 123.054,56.005 124.307,56.363 125.649,56.452 C 125.829,56.452 125.918,56.094 125.739,56.094 C 125.292,55.825 124.755,55.915 124.218,55.825 C 123.145,55.646 122.25,55.468 121.266,55.646 C 121.354,55.826 121.533,55.737 121.712,55.826 L 121.712,55.826 z"
   id="path17"
   style="fill:#181516;fill-rule:evenodd" /><path
   d="M 24.815,138.855 L 24.815,141.271 C 24.815,141.359 24.726,141.628 24.726,141.896 C 24.636,142.166 24.547,142.343 24.547,142.523 C 24.368,143.238 24.189,144.492 23.652,147.892 C 22.4,142.076 22.22,141.628 22.131,141.359 L 22.131,138.855 C 18.463,138.318 15.421,135.634 14.079,132.144 C 12.737,128.566 13.721,123.914 16.047,121.318 C 16.942,120.244 18.374,119.529 19.447,119.082 C 17.21,120.514 13.989,124.002 14.973,128.924 C 15.51,131.877 18.105,134.561 20.699,135.188 C 20.788,135.276 21.505,135.545 22.131,135.635 L 22.131,133.129 C 22.131,132.772 22.131,132.414 22.131,132.324 C 22.042,131.787 21.952,131.517 21.326,131.429 C 21.595,131.249 22.937,131.159 23.384,131.159 C 23.831,131.159 25.262,131.249 25.71,131.429 C 25.084,131.607 24.995,131.966 24.905,132.324 C 24.905,132.414 24.815,132.771 24.815,133.219 L 24.815,135.635 C 25.62,135.545 26.336,135.188 26.336,135.188 C 28.931,134.561 31.525,131.877 32.062,128.924 C 33.046,124.002 29.646,120.514 27.41,118.992 C 28.572,119.439 30.004,120.244 30.988,121.318 C 33.315,123.914 34.299,128.566 32.957,132.144 C 31.704,135.635 28.572,138.318 24.815,138.855 L 24.815,138.855 z"
   id="path19"
   style="fill:#181516;fill-rule:evenodd" /><path
   d="M 58.814,119.977 C 58.724,120.245 58.814,120.604 58.814,120.872 L 58.814,120.962 L 58.814,120.962 L 58.724,132.146 C 58.724,133.757 58.277,134.919 57.74,135.724 C 57.472,136.173 57.024,136.62 56.666,136.978 C 56.129,137.425 55.503,137.873 54.877,138.23 C 54.072,138.677 52.908,138.767 51.388,138.857 L 51.388,138.857 C 54.161,138.587 55.235,135.994 55.235,135.994 C 55.593,135.367 55.593,134.025 55.593,134.025 L 55.593,120.962 C 55.593,119.62 55.056,118.993 54.519,118.816 L 59.708,118.816 C 58.903,119.352 59.082,119.352 58.814,119.977 L 58.814,119.977 z M 44.141,136.977 C 44.051,136.887 41.993,134.918 41.993,132.145 L 41.993,120.961 L 41.993,120.871 C 41.993,120.603 41.993,120.156 41.904,119.887 C 41.814,119.44 41.904,119.352 41.188,118.815 L 46.109,118.815 C 45.483,119.352 44.945,119.71 45.125,120.961 L 45.125,133.756 C 45.125,133.846 45.214,135.188 45.483,135.992 C 45.483,135.992 46.646,138.586 49.33,138.765 L 49.419,138.765 C 46.199,138.676 44.856,137.781 44.141,136.977 L 44.141,136.977 z"
   id="path21"
   style="fill:#181516;fill-rule:evenodd" /><path
   d="M 79.302,138.586 L 79.213,138.586 C 80.287,138.498 80.287,137.334 80.287,137.156 C 80.018,136.529 79.661,135.455 79.124,134.47 C 78.677,133.486 77.961,132.501 77.156,132.324 C 77.066,132.324 76.708,132.324 76.44,132.234 C 76.172,132.234 75.814,132.234 75.814,132.234 C 75.635,132.234 75.545,132.234 75.545,132.234 C 75.276,132.144 75.276,132.144 75.188,132.144 C 75.188,132.144 75.545,131.966 75.635,131.876 C 76.44,131.696 77.604,131.339 76.977,129.997 C 76.53,129.102 75.993,127.761 75.456,126.507 C 75.009,125.255 74.472,124.361 74.114,124.181 C 74.024,124.091 73.756,124.271 73.577,124.628 C 73.488,124.808 73.308,125.255 73.129,125.612 C 72.682,126.507 72.145,127.491 71.966,128.028 C 71.877,128.208 71.698,128.565 71.518,128.923 C 71.34,129.37 71.161,129.818 71.071,130.175 C 70.892,131.07 71.071,131.966 72.324,131.966 C 72.592,131.966 72.592,132.054 72.861,132.144 C 72.592,132.234 72.592,132.234 72.324,132.234 C 71.34,132.234 70.624,132.414 70.266,132.681 C 69.997,132.771 69.818,132.949 69.64,133.218 C 69.64,133.218 68.834,134.47 68.208,136.529 L 68.118,137.334 C 68.208,138.051 68.834,138.498 69.102,138.586 L 64.54,138.586 C 65.793,137.781 67.045,136.082 68.029,134.471 C 69.013,132.682 69.729,131.071 69.729,131.071 C 71.161,128.03 71.876,126.331 71.876,126.331 C 72.771,124.362 73.487,122.483 73.487,122.483 L 75.097,118.458 L 78.855,127.226 C 79.124,127.941 79.392,128.388 79.392,128.478 C 79.482,128.568 80.108,129.999 80.824,131.519 C 81.54,133.04 82.345,134.83 82.792,135.724 C 83.508,137.335 84.939,138.23 85.745,138.587 L 79.302,138.587 L 79.302,138.586 z"
   id="path23"
   style="fill:#181516;fill-rule:evenodd" /><path
   d="M 110.797,119.082 C 108.65,121.855 106.502,124.629 104.266,127.582 C 106.055,128.387 110.886,131.25 110.26,139.033 L 109.991,139.033 C 109.365,132.234 101.134,129.013 99.792,128.566 L 100.06,128.386 L 111.96,117.382 C 111.423,118.367 111.154,118.635 110.797,119.082 L 110.797,119.082 z M 96.66,129.998 C 96.481,130.355 96.302,130.713 96.302,131.07 C 96.213,131.16 96.213,131.16 96.213,131.16 L 96.213,136.439 C 96.213,137.871 97.287,138.498 97.555,138.585 L 97.555,138.497 L 91.74,138.497 C 92.724,138.138 92.814,137.78 92.992,137.333 C 93.171,137.155 93.171,136.886 93.171,136.706 C 93.261,136.528 93.261,136.528 93.261,136.438 L 93.261,120.87 C 93.261,119.438 92.366,118.813 92.098,118.724 L 97.556,118.724 C 96.751,119.081 96.572,119.619 96.393,120.423 C 96.303,120.603 96.303,120.693 96.303,120.78 L 96.303,126.239 C 96.303,127.671 97.735,128.208 98.809,128.565 C 97.644,128.924 97.018,129.461 96.66,129.998 L 96.66,129.998 z"
   id="path25"
   style="fill:#181516;fill-rule:evenodd" /><path
   d="M 128.153,118.635 L 134.864,118.635 L 134.864,124.899 C 133.88,120.871 129.765,119.082 128.153,118.635 L 128.153,118.635 z M 132.628,138.229 C 132.538,138.319 131.554,138.499 129.138,138.499 L 129.138,138.499 C 132.27,138.14 135.043,133.31 135.849,131.519 L 135.849,138.857 C 134.596,137.514 132.717,138.229 132.628,138.229 L 132.628,138.229 z M 121.891,136.439 C 121.891,136.439 121.712,136.259 121.534,136.082 C 120.639,135.098 119.834,133.756 119.834,132.502 L 119.834,120.871 C 119.744,120.693 119.477,119.439 117.776,118.635 L 124.486,118.635 C 123.86,118.905 122.876,119.709 122.876,120.961 L 122.876,126.508 C 122.876,127.582 123.413,128.029 123.502,128.119 C 123.771,128.297 125.202,128.476 126.187,128.566 C 124.487,128.744 123.502,129.281 123.502,129.371 C 123.145,129.639 122.966,130.176 122.876,130.623 C 122.876,130.803 122.966,130.803 122.966,130.803 L 122.876,130.803 L 122.876,132.502 C 122.876,132.502 122.876,133.934 123.323,135.455 C 123.413,135.723 124.665,138.228 127.081,138.498 L 127.081,138.498 C 124.128,138.408 122.606,137.156 121.891,136.439 L 121.891,136.439 z"
   id="path27"
   style="fill:#181516;fill-rule:evenodd" /><path
   d="M 157.143,138.586 L 151.595,138.676 C 153.116,138.051 153.028,136.707 153.028,136.53 L 153.028,120.782 C 153.117,119.53 152.491,118.993 151.595,118.636 L 157.411,118.636 C 156.515,118.993 156.337,119.531 156.068,120.335 C 155.978,120.515 155.978,120.605 155.978,120.694 L 155.978,136.53 C 155.978,137.692 156.784,138.409 157.411,138.676 L 157.143,138.586 L 157.143,138.586 z"
   id="path29"
   style="fill:#181516;fill-rule:evenodd" /><path
   d="M 170.563,138.586 L 165.016,138.676 C 166.537,138.051 166.448,136.707 166.537,136.53 L 166.537,120.782 C 166.537,119.53 165.91,118.993 165.016,118.636 L 170.831,118.636 C 170.026,118.993 169.758,119.531 169.489,120.335 C 169.489,120.515 169.489,120.605 169.4,120.694 L 169.489,136.53 C 169.489,137.692 170.205,138.409 170.831,138.676 L 170.563,138.586 L 170.563,138.586 z"
   id="path31"
   style="fill:#181516;fill-rule:evenodd" /><path
   d="M 184.073,138.586 L 178.526,138.676 C 180.047,138.051 179.957,136.707 179.957,136.53 L 179.957,120.782 C 179.957,119.53 179.421,118.993 178.526,118.636 L 184.252,118.636 C 183.447,118.993 183.268,119.531 183,120.335 C 182.91,120.515 182.91,120.605 182.91,120.694 L 182.91,136.53 C 182.91,137.692 183.625,138.409 184.252,138.676 L 184.073,138.586 L 184.073,138.586 z"
   id="path33"
   style="fill:#181516;fill-rule:evenodd" /><path
   d="M 69.55,154.781 L 69.55,154.781 C 69.908,154.691 69.908,154.244 69.908,154.154 C 69.819,153.976 69.729,153.527 69.461,153.08 C 69.282,152.723 69.014,152.365 68.656,152.275 C 68.656,152.275 68.477,152.275 68.387,152.275 C 68.298,152.185 68.118,152.185 68.118,152.185 C 68.029,152.185 68.029,152.185 68.029,152.185 C 67.94,152.185 67.94,152.185 67.85,152.185 L 68.029,152.097 C 68.387,152.007 68.834,151.917 68.566,151.29 C 68.477,150.933 68.208,150.395 68.029,149.948 C 67.761,149.411 67.582,149.053 67.493,148.964 C 67.403,148.964 67.314,149.054 67.224,149.144 C 67.224,149.234 67.135,149.412 67.045,149.591 C 66.866,149.948 66.688,150.306 66.598,150.575 C 66.598,150.575 66.509,150.753 66.419,150.932 C 66.33,151.022 66.33,151.202 66.241,151.379 C 66.152,151.736 66.241,152.096 66.778,152.096 C 66.867,152.096 66.867,152.184 66.957,152.184 C 66.868,152.184 66.868,152.184 66.778,152.184 C 66.331,152.184 66.062,152.274 65.883,152.364 C 65.794,152.454 65.704,152.544 65.704,152.632 C 65.704,152.632 65.347,153.079 65.078,153.976 L 65.078,154.244 C 65.078,154.512 65.347,154.691 65.435,154.781 L 63.646,154.781 C 64.183,154.424 64.63,153.707 64.988,153.08 C 65.435,152.365 65.704,151.738 65.704,151.738 C 66.33,150.486 66.599,149.859 66.599,149.859 C 66.957,149.054 67.225,148.339 67.225,148.339 L 67.851,146.728 L 69.372,150.216 C 69.461,150.486 69.551,150.665 69.551,150.753 C 69.641,150.753 69.909,151.29 70.178,151.917 C 70.446,152.544 70.804,153.259 70.893,153.616 C 71.251,154.243 71.788,154.6 72.145,154.78 L 69.55,154.78 L 69.55,154.781 z"
   id="path35"
   style="fill:#181516;fill-rule:evenodd" /><path
   d="M 82.703,150.754 C 82.614,150.666 82.614,150.666 82.435,150.666 L 82.077,150.666 C 83.419,150.217 84.225,149.502 84.225,148.697 C 84.225,147.892 83.687,147.086 82.346,146.908 C 82.793,146.818 82.883,146.818 82.972,146.818 C 83.061,146.818 83.061,146.818 83.151,146.818 C 85.119,146.818 86.372,149.234 84.314,150.396 C 85.298,150.843 86.64,152.097 86.551,155.228 C 85.745,151.738 82.882,150.754 82.703,150.754 L 82.703,150.754 z M 81.003,147.623 L 81.003,149.769 C 81.003,150.306 81.629,150.486 81.987,150.576 C 81.539,150.754 81.271,150.933 81.181,151.203 C 81.092,151.291 81.002,151.471 81.002,151.56 C 81.002,151.649 81.002,151.65 81.002,151.65 L 81.002,153.707 C 81.002,154.154 81.359,154.334 81.449,154.334 L 81.449,154.512 L 78.944,154.512 C 79.839,154.155 79.839,153.707 79.839,153.707 L 79.839,147.623 C 79.839,147.086 79.571,146.996 79.392,146.908 L 79.392,146.818 L 82.076,146.818 C 81.182,147.086 81.092,147.533 81.003,147.623 L 81.003,147.623 z"
   id="path37"
   style="fill:#181516;fill-rule:evenodd" /><path
   d="M 98.36,146.818 L 101.044,146.818 L 101.044,149.234 C 100.597,147.713 98.986,146.996 98.36,146.818 L 98.36,146.818 z M 100.149,154.602 C 100.059,154.602 99.702,154.782 98.718,154.782 L 98.718,154.692 C 99.97,154.602 101.043,152.633 101.402,151.919 L 101.402,154.872 C 100.954,154.334 100.149,154.602 100.149,154.602 L 100.149,154.602 z M 95.855,153.887 C 95.766,153.887 95.766,153.887 95.676,153.797 C 95.319,153.35 94.96,152.813 94.96,152.365 L 94.96,147.713 C 94.96,147.623 94.871,147.086 94.155,146.818 L 96.84,146.818 C 96.661,146.908 96.214,147.175 96.214,147.713 L 96.214,149.949 C 96.214,150.396 96.482,150.576 96.482,150.576 C 96.571,150.666 97.198,150.754 97.556,150.754 C 96.841,150.844 96.482,151.024 96.482,151.113 C 96.303,151.203 96.214,151.381 96.214,151.56 C 96.214,151.65 96.214,151.65 96.214,151.65 L 96.214,151.65 L 96.214,152.365 C 96.214,152.365 96.214,152.902 96.393,153.527 C 96.393,153.617 96.93,154.601 97.914,154.691 L 97.914,154.691 C 96.75,154.691 96.123,154.244 95.855,153.887 L 95.855,153.887 z"
   id="path39"
   style="fill:#181516;fill-rule:evenodd" /><path
   d="M 115.807,147.355 C 115.807,147.443 115.718,147.623 115.718,147.712 L 115.718,155.405 L 110.26,148.696 L 110.26,153.885 C 110.26,154.422 110.617,154.6 110.797,154.6 L 110.797,154.78 L 109.276,154.78 L 109.276,154.6 C 109.545,154.6 109.723,154.243 109.723,153.975 C 109.723,153.885 109.723,153.885 109.723,153.885 L 109.723,147.711 C 109.723,147.711 109.723,146.994 109.276,146.906 L 109.276,146.816 L 111.781,146.816 C 111.155,147.084 111.155,147.353 111.245,147.441 L 115.182,152.363 L 115.182,147.711 C 115.182,147.264 114.466,146.994 114.019,146.816 L 116.166,146.816 L 116.166,146.906 C 115.986,146.996 115.896,147.176 115.807,147.355 L 115.807,147.355 z"
   id="path41"
   style="fill:#181516;fill-rule:evenodd" /><path
   d="M 129.765,154.781 L 129.675,154.781 C 130.122,154.691 130.122,154.244 130.122,154.154 C 130.032,153.976 129.854,153.527 129.675,153.08 C 129.496,152.723 129.228,152.365 128.87,152.275 C 128.87,152.275 128.69,152.275 128.601,152.275 C 128.511,152.185 128.332,152.185 128.332,152.185 C 128.242,152.185 128.242,152.185 128.242,152.185 C 128.152,152.185 128.152,152.185 128.063,152.185 L 128.242,152.097 C 128.6,152.007 129.048,151.917 128.779,151.29 C 128.6,150.933 128.421,150.395 128.242,149.948 C 127.973,149.411 127.795,149.053 127.705,148.964 C 127.616,148.964 127.526,149.054 127.437,149.144 C 127.437,149.234 127.347,149.412 127.258,149.591 C 127.078,149.948 126.9,150.306 126.81,150.575 C 126.72,150.575 126.72,150.753 126.631,150.932 C 126.541,151.022 126.452,151.202 126.452,151.379 C 126.362,151.736 126.452,152.096 126.988,152.096 C 127.078,152.096 127.078,152.184 127.168,152.184 C 127.078,152.184 127.078,152.184 126.988,152.184 C 126.541,152.184 126.273,152.274 126.093,152.364 C 126.003,152.454 125.914,152.544 125.914,152.632 C 125.914,152.632 125.556,153.079 125.288,153.976 L 125.288,154.244 C 125.288,154.512 125.556,154.691 125.645,154.781 L 123.766,154.781 C 124.303,154.424 124.84,153.707 125.198,153.08 C 125.645,152.365 125.914,151.738 125.914,151.738 C 126.451,150.486 126.719,149.859 126.719,149.859 C 127.077,149.054 127.436,148.339 127.436,148.339 L 128.062,146.728 L 129.583,150.216 C 129.673,150.486 129.763,150.665 129.763,150.753 C 129.853,150.753 130.031,151.29 130.388,151.917 C 130.658,152.544 130.926,153.259 131.105,153.616 C 131.462,154.243 132,154.6 132.268,154.78 L 129.765,154.78 L 129.765,154.781 z"
   id="path43"
   style="fill:#181516;fill-rule:evenodd" />
	</svg>